<svg width="380" height="195" viewBox="0 0 380 195" fill="none" xmlns="http://www.w3.org/2000/svg">
<path d="M160.74 20.2145C160.52 20.4262 160.52 21.1318 160.74 21.6963C161.108 22.543 160.814 22.6841 159.417 22.2607L157.654 21.7668L159.417 23.5308L161.108 25.3653L157.213 25.2948C155.008 25.2948 151.848 24.8009 150.085 24.307C146.557 23.178 145.382 23.4603 146.043 25.2242C146.41 26.1415 146.19 26.2826 144.941 26.0004C142.883 25.4359 142.81 26.5648 144.794 27.1999C145.602 27.4115 146.263 27.976 146.263 28.3288C146.263 29.105 146.41 29.105 143.397 28.2583C141.413 27.7643 141.046 27.7643 141.707 28.3994C143.251 29.8811 142.663 30.5161 140.017 30.0928C138.4 29.8105 137.445 29.8811 137.445 30.375C137.445 30.7278 137.959 31.0806 138.547 31.0806C139.135 31.0806 139.65 31.3629 139.65 31.7862C139.65 32.139 139.135 32.4918 138.474 32.4918C137.445 32.4918 137.372 32.6329 138.253 33.6913C139.135 34.6791 139.135 34.7497 138.18 34.3969C136.71 33.8324 124.071 30.0928 119.147 28.7522C115.326 27.6232 115.252 27.6938 115.62 29.105C115.987 30.375 115.767 30.5161 113.709 30.1633L111.431 29.8811L113.636 31.5745L115.767 33.3385L113.121 33.0563C110.917 32.8446 110.549 32.9857 110.843 34.0441C111.137 35.1025 110.77 35.2436 108.712 34.8908C107.022 34.6086 106.507 34.6791 107.242 35.173C107.977 35.6669 107.977 35.9492 107.316 36.3725C106.728 36.7253 106.801 37.1487 107.61 37.9954C108.565 39.0538 108.492 39.4066 106.948 41.1C104.891 43.3579 104.376 43.4284 99.8936 42.0878C94.1617 40.3944 88.3563 39.336 87.0335 39.8299C85.8578 40.2533 85.8578 40.3944 87.1805 41.3822C88.5033 42.4406 88.4298 42.4406 86.2252 42.0878C83.3592 41.5939 82.9918 42.7228 85.6373 43.9223C89.6791 45.6863 86.9601 46.3919 81.963 44.8396C80.6402 44.4163 80.6402 44.4868 81.7425 45.1924C82.4774 45.6158 82.8448 46.3919 82.5509 47.0269C82.11 48.0853 79.7584 48.0148 75.8636 46.8858C75.0553 46.6036 75.2758 47.0269 76.4515 48.0853C77.7008 49.0732 77.9947 49.7082 77.4069 49.9199C76.0106 50.4138 76.2311 51.4016 77.9213 51.8955C81.3016 52.8833 78.9501 53.6595 72.4098 53.6595C64.5468 53.6595 62.4892 54.6473 62.4892 58.528C62.4892 59.657 61.9748 60.927 61.3869 61.421C60.505 62.1265 60.4315 62.5499 61.1664 63.3966C61.9748 64.3139 61.8278 64.455 59.6967 64.0316C57.4921 63.6083 57.3451 63.6788 58.08 64.9489C58.5209 65.7251 59.3292 66.3601 59.9171 66.3601C60.505 66.3601 61.0194 66.6423 61.0194 67.0657C61.0194 67.9124 60.5785 67.9124 57.3451 67.0657C55.1405 66.5012 54.9201 66.5718 56.0959 67.3479C57.1981 68.1241 57.1981 68.4063 56.3163 69.1119C55.508 69.7469 54.4792 69.7469 51.9071 69.1119C49.9965 68.6885 48.3063 68.0535 48.0859 67.7007C47.8654 67.3479 46.5426 67.0657 45.1464 67.0657C42.2804 67.0657 42.8683 66.0073 31.9189 89.9973C28.906 96.5593 24.9377 105.167 23.1005 109.048C19.4997 116.951 19.2793 117.868 21.1899 119.491C22.2922 120.408 24.0559 120.69 29.4938 120.69C33.3151 120.69 36.769 120.408 37.2099 120.126C37.7243 119.844 38.9001 118.009 39.8554 116.104L41.5456 112.576H45.5138H49.4086L51.0253 116.457L52.642 120.338L57.5656 120.549L62.4892 120.761V123.866C62.4892 126.123 62.9301 127.464 63.9589 128.452C65.3551 129.793 66.3839 129.863 80.5668 129.863C88.8707 129.863 96.2193 129.581 96.8807 129.228C97.7625 128.805 101.069 129.722 108.051 132.262C121.425 137.272 133.256 141.435 142.883 144.751C148.762 146.727 151.481 148.067 152.804 149.62C154.714 151.666 157.066 152.654 185.579 163.661C210.637 173.327 211.225 173.539 217.913 174.809C219.897 175.162 220.044 175.091 219.088 174.033C218.206 173.045 218.28 172.904 219.676 172.904C221.734 172.904 221.66 172.057 219.382 170.717L217.472 169.658L220.264 167.894C221.807 166.977 223.13 165.636 223.277 164.931C223.644 163.308 221.44 160.909 219.676 160.909C218.941 160.909 218.206 160.627 217.913 160.203C217.692 159.851 217.031 159.71 216.443 159.992C215.855 160.203 215.34 160.062 215.34 159.71C215.34 158.792 187.269 147.432 178.23 144.751C175.437 143.834 170.146 142.07 166.472 140.659C162.871 139.247 157.874 137.413 155.449 136.566C148.248 134.026 145.014 132.474 146.337 132.192C147.439 131.909 153.833 134.097 170.146 140.376C187.857 147.221 194.103 149.337 191.09 147.503C190.502 147.15 190.282 146.656 190.576 146.374C190.87 146.092 194.176 147.009 197.924 148.42C205.199 151.172 221.293 156.534 224.012 157.169C224.967 157.381 225.629 157.24 225.629 156.676C225.629 156.182 226.143 155.97 226.731 156.252C228.054 156.746 228.201 155.899 226.951 154.7C226.29 154.065 226.363 153.853 227.392 153.853C228.495 153.853 228.568 153.641 227.833 152.795C227.025 151.878 227.245 151.736 229.229 151.736C230.479 151.736 231.507 151.384 231.507 151.031C231.507 150.607 232.169 150.325 232.977 150.325C234.961 150.325 234.888 149.196 232.904 148.702C231.434 148.35 231.434 148.208 232.463 147.221C234.153 145.598 235.255 145.739 245.984 149.62C251.349 151.525 256.272 153.148 256.934 153.148C257.595 153.148 260.241 153.994 262.96 155.053C265.605 156.04 268.838 157.099 270.161 157.381C272.145 157.804 272.439 157.734 272.145 156.605C271.704 155.053 272.145 154.982 274.276 156.04C275.232 156.534 276.04 156.534 276.481 156.111C276.848 155.758 276.261 155.053 274.864 154.418C272.586 153.359 272.586 153.359 274.276 152.795C275.232 152.513 276.481 152.301 277.069 152.371C277.657 152.442 277.289 151.948 276.187 151.242C272.954 149.267 273.836 147.997 277.216 149.69C278.024 150.114 281.846 151.172 285.74 152.089C289.709 153.006 293.971 154.277 295.367 154.982C296.69 155.617 298.968 156.393 300.291 156.676C302.422 157.169 302.789 157.028 302.789 155.899C302.789 154.77 303.083 154.7 304.7 155.264C307.419 156.252 308.521 155.264 306.096 153.994C304.479 153.218 304.259 152.865 305.067 152.371C305.655 152.019 306.757 151.736 307.566 151.736C308.815 151.736 308.741 151.525 306.978 150.396C304.626 148.985 305.435 147.644 307.86 148.914C308.668 149.267 310.432 149.62 311.754 149.62H314.179L312.342 148.138L310.505 146.656L312.857 147.079C316.237 147.644 316.678 145.739 313.371 144.68C310.432 143.693 310.138 142.917 312.71 142.281C314.988 141.717 318.662 138.471 318.368 137.201C318.221 136.637 318.515 136.213 319.03 136.213C319.47 136.213 319.103 135.437 318.148 134.449C317.045 133.391 315.576 132.685 314.179 132.685C312.71 132.685 312.269 132.474 312.93 132.05C313.665 131.627 313.518 131.345 312.269 131.063C311.24 130.78 310.358 130.992 309.991 131.486C309.623 132.121 309.256 132.121 308.521 131.415C307.86 130.78 307.86 130.569 308.741 130.569C309.329 130.498 308.962 130.075 307.933 129.51L306.096 128.522L307.933 128.452H309.77L307.566 127.041L305.361 125.63H307.713C310.873 125.63 311.387 124.501 308.888 123.231C305.655 121.537 308.668 121.89 313.959 123.724C320.94 126.265 322.704 126.547 322.189 125.277C321.675 124.007 322.189 123.936 324.174 124.924C325.276 125.488 325.57 125.418 325.57 124.642C325.57 124.148 325.055 123.442 324.394 123.231C322.557 122.525 324.1 121.255 326.378 121.537C327.48 121.749 328.289 121.608 328.068 121.325C327.921 121.043 328.73 120.62 329.905 120.338C331.302 120.055 331.963 119.562 331.743 118.926C331.522 118.433 331.963 117.798 332.845 117.515L334.315 117.092L332.771 115.61L331.302 114.199L333.58 111.941C336.446 109.119 336.446 107.214 333.653 105.661C331.89 104.603 331.449 103.897 331.449 101.992C331.449 99.0289 332.404 98.3233 333.874 100.44C334.462 101.287 335.858 102.91 337.034 104.109C338.209 105.238 340.414 107.637 341.957 109.401C343.574 111.165 346.807 114.552 349.306 117.021C353.054 120.832 354.009 121.467 355.993 121.255C360.035 120.902 360.108 120.055 359.961 93.6664C359.741 65.5839 360.476 67.7713 350.555 67.7713C342.398 67.7713 341.737 68.3357 341.737 75.3916C341.737 78.214 341.59 80.4719 341.443 80.4719C341.222 80.4719 338.283 77.7201 334.829 74.2627L328.583 68.1241L320.646 67.7713C313.739 67.4185 311.901 66.9951 306.096 64.7372C301.834 63.0438 298.894 62.2677 297.792 62.5499C296.763 62.8321 294.338 62.3382 291.546 61.2093C289.047 60.2215 283.83 58.2458 280.008 56.8346C276.187 55.4235 271.043 53.5184 268.618 52.6011C245.911 44.0635 237.166 41.2411 235.843 42.0878C234.888 42.5817 218.794 37.3604 217.178 36.0197C216.075 35.173 214.753 34.8908 211.887 35.1025C208.506 35.3142 208.065 35.173 207.845 33.8324C207.698 32.6329 206.596 31.9273 203.215 30.8689C200.79 30.1634 197.41 28.8933 195.646 28.1877C193.956 27.4821 190.87 26.8471 188.812 26.8471C186.534 26.8471 182.639 26.0004 178.891 24.7303C175.511 23.6014 170.661 22.1196 168.089 21.5552C165.59 20.9201 163.018 20.2851 162.357 20.0734C161.769 19.9323 161.034 20.0029 160.74 20.2145ZM170.881 29.3166C172.572 30.0222 172.718 30.2339 171.616 30.3045C170.808 30.3045 169.338 29.8811 168.309 29.3166C165.958 28.0466 167.942 27.976 170.881 29.3166ZM195.132 38.1365C195.352 38.4893 195.205 38.8421 194.838 38.8421C194.397 38.8421 194.029 38.4893 194.029 38.1365C194.029 37.7132 194.176 37.4309 194.323 37.4309C194.544 37.4309 194.911 37.7132 195.132 38.1365ZM77.1864 87.175V116.457H86.0047H94.8966L94.6761 121.184L94.4557 125.982H80.8607H67.2658L67.0453 91.9024L66.8983 57.893H72.0424H77.1864V87.175ZM303.965 65.5134C303.45 66.0073 300.585 64.8783 300.585 64.2433C300.585 63.8905 301.393 63.9611 302.422 64.3844C303.45 64.8078 304.112 65.3017 303.965 65.5134ZM52.2011 70.8759C52.2011 71.652 50.8048 71.9342 50.3639 71.2992C50.1435 70.9464 50.4374 70.5936 51.0253 70.5936C51.6867 70.5936 52.2011 70.7347 52.2011 70.8759ZM134.065 72.0048C135.902 72.6398 135.975 72.9221 135.975 78.2845V83.8587L133.256 82.5181C130.023 80.8952 124.438 80.7541 120.911 82.1653C119.514 82.7298 117.604 84.4232 116.502 86.046C110.99 93.9486 113.636 103.474 122.16 106.861C125.761 108.343 128.333 108.272 132.228 106.579C133.991 105.803 135.534 105.167 135.681 105.167C135.828 105.167 135.975 107.708 135.975 110.812V116.386L132.889 117.233C121.939 120.055 109.52 114.27 104.303 103.827C101.951 99.17 101.878 89.9973 104.156 85.1993C108.859 75.4622 117.971 70.0997 128.406 71.017C130.464 71.1581 133.036 71.5814 134.065 72.0048ZM231.14 71.5814L234.814 72.3576L235.035 78.214L235.255 84.0704L232.169 82.5181C227.539 80.2602 220.631 80.8247 217.472 83.647C213.724 87.1044 212.181 90.7029 212.548 95.3598C212.915 100.652 215.487 104.391 220.044 106.438C224.159 108.343 226.51 108.343 230.699 106.579C232.463 105.803 234.153 105.167 234.52 105.167C234.888 105.167 235.182 107.566 235.182 110.459C235.182 117.021 234.52 117.515 225.629 117.515C220.778 117.515 218.574 117.163 215.928 115.963C211.593 114.058 206.228 109.33 203.73 105.238C201.893 102.275 201.746 101.357 201.746 94.5837C201.746 88.1628 201.966 86.7516 203.436 84.1409C206.008 79.5546 210.858 74.8272 214.606 73.2749C221.072 70.5936 225.041 70.1703 231.14 71.5814ZM52.2746 85.4816C62.4157 107.778 62.4892 107.919 62.4892 112.717V117.163H58.9618H55.361L53.5973 112.929L51.8337 108.695H45.3669H38.8266L36.9159 112.929L34.9318 117.163H29.6408C26.7014 117.163 24.2763 117.021 24.2763 116.81C24.2763 116.104 27.4362 108.837 30.5226 102.557C32.3598 98.8877 33.8295 95.642 33.8295 95.4304C33.8295 95.0776 38.0917 85.7638 43.4562 74.1921C44.4115 72.1459 45.1464 71.2992 45.6608 71.7931C46.1017 72.2165 49.0412 78.3551 52.2746 85.4816ZM153.465 80.2602L153.686 88.9389H157.58C159.711 88.9389 162.504 89.1506 163.753 89.3623L166.031 89.7857L166.252 80.7541L166.472 71.652H171.616H176.76V94.2309V116.81H171.616H166.472L166.252 107.778L166.031 98.8172H159.858H153.612V107.99V117.233L148.321 117.021L142.957 116.81L142.736 94.4425L142.589 72.0754L144.206 71.8637C145.161 71.7226 147.586 71.652 149.57 71.652H153.245L153.465 80.2602ZM195.352 94.5131L195.499 117.233L190.208 117.021L184.844 116.81L184.623 95.642C184.55 83.9998 184.623 73.7688 184.844 72.8515C185.211 71.2992 185.505 71.2287 190.208 71.5109L195.132 71.7931L195.352 94.5131ZM252.818 78.6373L253.186 85.6227L256.493 81.4597C258.33 79.1312 260.681 76.0972 261.637 74.686C262.666 73.2043 264.062 72.0048 264.797 71.9342C270.382 71.652 275.232 71.8637 275.232 72.4282C275.232 72.7809 272.292 76.8028 268.618 81.3891C265.017 85.9755 261.563 90.2796 261.122 90.9852C260.094 92.3258 259.873 92.0435 270.455 106.931C273.762 111.588 276.701 115.822 276.848 116.245C277.142 116.951 275.673 117.163 270.896 117.163H264.576L258.844 108.837L253.186 100.581L252.818 108.695L252.451 116.81H247.307H242.163L241.942 94.9365C241.869 82.9414 241.942 72.7104 242.089 72.287C242.236 71.8637 244.441 71.5814 247.454 71.5814L252.451 71.652L252.818 78.6373ZM310.505 76.2383V80.8247L301.319 81.1775L292.134 81.5303V84.3526V87.175L301.172 87.3867L310.211 87.5983L309.991 92.3258L309.77 97.0532L300.731 97.2649L291.693 97.4766L291.913 102.063L292.134 106.72L301.319 106.79L310.505 106.931L310.726 112.012L310.946 117.163H296.175H281.478V94.7248C281.478 82.377 281.625 72.0754 281.772 71.9342C281.919 71.7931 288.459 71.652 296.322 71.652L310.505 71.7226V76.2383ZM335.637 80.8952L345.044 90.4912L345.411 81.0363L345.779 71.652L350.555 71.7226L355.332 71.8637L355.552 94.5131C355.626 106.931 355.479 117.163 355.185 117.163C354.817 117.163 348.644 110.742 341.369 102.98L328.142 88.7273L327.921 102.98L327.774 117.233L322.777 117.021L317.854 116.81V94.5837V72.3576L320.426 71.9342C325.937 71.017 325.79 70.8759 335.637 80.8952ZM52.9359 74.8272C52.9359 75.18 52.789 75.5327 52.642 75.5327C52.4215 75.5327 52.0541 75.18 51.8337 74.8272C51.6132 74.4038 51.7602 74.1216 52.1276 74.1216C52.5685 74.1216 52.9359 74.4038 52.9359 74.8272ZM98.13 94.2309V98.4644H91.5162H84.9025L84.682 95.007C84.3146 89.6445 84.388 89.574 91.6632 89.7857L98.13 89.9973V94.2309ZM61.3134 90.7735C62.1952 91.0557 62.4892 92.1141 62.4892 94.5131C62.4157 98.041 62.0482 97.7588 59.8436 92.8197C58.8148 90.3501 59.1088 89.9268 61.3134 90.7735ZM110.549 122.102C114.37 123.583 118.045 125.136 118.78 125.559C120.102 126.265 120.102 126.265 118.853 126.335C116.355 126.335 101.804 121.325 100.335 119.844L98.8648 118.433L101.29 118.926C102.613 119.209 106.801 120.62 110.549 122.102ZM109.888 119.279C110.476 120.197 108.785 120.197 107.316 119.279C106.434 118.715 106.507 118.574 107.83 118.574C108.712 118.574 109.667 118.856 109.888 119.279ZM117.457 121.396C117.898 121.396 118.339 121.749 118.339 122.172C118.339 123.089 114.664 122.384 113.562 121.255C113.048 120.69 113.415 120.62 114.664 120.973C115.693 121.184 116.942 121.396 117.457 121.396ZM141.119 130.286C142.148 130.851 142.369 131.204 141.634 130.992C140.899 130.78 139.797 130.569 139.209 130.569C138.621 130.569 138.18 130.216 138.18 129.863C138.18 128.875 138.915 129.016 141.119 130.286ZM181.537 146.797C182.492 147.432 182.492 147.503 181.537 147.503C180.949 147.503 179.92 147.15 179.332 146.797C178.377 146.162 178.377 146.092 179.332 146.092C179.92 146.092 180.949 146.444 181.537 146.797ZM188.077 149.337C188.959 150.184 187.489 150.043 185.579 149.196L183.374 148.208L185.579 148.632C186.754 148.843 187.93 149.196 188.077 149.337ZM197.63 152.865C198.586 153.712 197.042 153.571 195.499 152.724L193.662 151.666L195.499 152.16C196.528 152.371 197.483 152.724 197.63 152.865Z" fill="#E53E3E"/>
<path d="M43.8971 95.9243C43.1622 97.5472 42.6478 99.0289 42.6478 99.17C42.6478 99.3817 43.8236 99.5228 45.2198 99.5228C48.1593 99.5228 48.3063 98.8878 46.3956 95.3598L45.0729 92.9608L43.8971 95.9243Z" fill="#E53E3E"/>
</svg>
