<svg width="80" height="40" viewBox="0 0 80 40" fill="none" xmlns="http://www.w3.org/2000/svg">
<path d="M33.1153 0.0553665C33.0635 0.109993 33.0635 0.29208 33.1153 0.437748C33.2018 0.656254 33.1326 0.692673 32.8041 0.58342L32.3891 0.455959L32.8041 0.911179L33.2018 1.38461L32.2854 1.3664C31.7667 1.3664 31.0232 1.23893 30.6082 1.11147C29.7782 0.820133 29.5016 0.892967 29.6572 1.34819C29.7436 1.5849 29.6918 1.62132 29.3978 1.54848C28.9137 1.40281 28.8964 1.69415 29.3632 1.85803C29.5534 1.91266 29.709 2.05833 29.709 2.14937C29.709 2.34967 29.7436 2.34967 29.0347 2.13116C28.5678 2.0037 28.4814 2.0037 28.637 2.16758C29.0001 2.54996 28.8618 2.71384 28.2393 2.60459C27.8589 2.53176 27.6341 2.54996 27.6341 2.67743C27.6341 2.76847 27.7552 2.85952 27.8935 2.85952C28.0318 2.85952 28.1529 2.93235 28.1529 3.0416C28.1529 3.13265 28.0318 3.22369 27.8762 3.22369C27.6341 3.22369 27.6168 3.26011 27.8243 3.53324C28.0318 3.78816 28.0318 3.80637 27.8071 3.71533C27.4612 3.56966 24.4872 2.60459 23.3287 2.25863C22.4296 1.96729 22.4123 1.98549 22.4988 2.34967C22.5852 2.67743 22.5333 2.71384 22.0492 2.6228L21.5132 2.54996L22.0319 2.98698L22.5333 3.4422L21.9109 3.36936C21.3921 3.31474 21.3057 3.35115 21.3748 3.62428C21.444 3.89742 21.3576 3.93383 20.8734 3.84279C20.4757 3.76995 20.3547 3.78816 20.5276 3.91562C20.7005 4.04309 20.7005 4.11592 20.5449 4.22517C20.4066 4.31622 20.4238 4.42547 20.614 4.64397C20.8388 4.91711 20.8215 5.00815 20.4584 5.44516C19.9743 6.02784 19.8532 6.04605 18.7985 5.70008C17.4498 5.26307 16.0838 4.98994 15.7726 5.1174C15.4959 5.22665 15.4959 5.26307 15.8072 5.51799C16.1184 5.79113 16.1011 5.79113 15.5824 5.70008C14.9081 5.57262 14.8216 5.86396 15.4441 6.17351C16.3951 6.62873 15.7553 6.81082 14.5795 6.41022C14.2683 6.30097 14.2683 6.31918 14.5277 6.50127C14.7006 6.61052 14.787 6.81082 14.7179 6.97469C14.6141 7.24783 14.0608 7.22962 13.1444 6.93828C12.9542 6.86544 13.0061 6.97469 13.2827 7.24783C13.5767 7.50275 13.6458 7.66663 13.5075 7.72125C13.179 7.84872 13.2308 8.10364 13.6285 8.2311C14.4239 8.48602 13.8706 8.68632 12.3317 8.68632C10.4816 8.68632 9.99745 8.94124 9.99745 9.94272C9.99745 10.2341 9.87641 10.5618 9.73808 10.6893C9.53059 10.8714 9.5133 10.9806 9.68621 11.1991C9.87641 11.4358 9.84183 11.4723 9.34039 11.363C8.82167 11.2538 8.78709 11.272 8.96 11.5997C9.06374 11.8 9.25394 11.9639 9.39227 11.9639C9.53059 11.9639 9.65163 12.0367 9.65163 12.146C9.65163 12.3645 9.54789 12.3645 8.78709 12.146C8.26836 12.0003 8.21649 12.0185 8.49314 12.2188C8.75251 12.4191 8.75251 12.4919 8.54501 12.674C8.35482 12.8379 8.11274 12.8379 7.50756 12.674C7.058 12.5648 6.66031 12.4009 6.60844 12.3099C6.55656 12.2188 6.24533 12.146 5.9168 12.146C5.24246 12.146 5.38078 11.8729 2.80444 18.0638C2.09552 19.7572 1.16181 21.9787 0.729539 22.9802C-0.117714 25.0196 -0.169587 25.2563 0.279976 25.6751C0.539339 25.9118 0.95432 25.9846 2.23385 25.9846C3.13297 25.9846 3.94564 25.9118 4.04939 25.839C4.17042 25.7661 4.44708 25.2927 4.67186 24.8011L5.06955 23.8906H6.00326H6.91967L7.30007 24.8921L7.68047 25.8936L8.83896 25.9482L9.99745 26.0028V26.804C9.99745 27.3867 10.1012 27.7327 10.3433 27.9876C10.6718 28.3336 10.9139 28.3518 14.251 28.3518C16.2049 28.3518 17.934 28.2789 18.0896 28.1879C18.2971 28.0786 19.0752 28.3154 20.7178 28.9709C23.8647 30.2637 26.6486 31.338 28.9137 32.1938C30.2969 32.7037 30.9367 33.0496 31.2479 33.4502C31.6975 33.9783 32.2508 34.2332 38.9597 37.0738C44.8559 39.5684 44.9942 39.623 46.5676 39.9507C47.0345 40.0418 47.0691 40.0236 46.8443 39.7505C46.6368 39.4955 46.6541 39.4591 46.9826 39.4591C47.4668 39.4591 47.4495 39.2406 46.9135 38.8946L46.4639 38.6215L47.121 38.1663C47.4841 37.9296 47.7953 37.5836 47.8299 37.4015C47.9163 36.9827 47.3976 36.3636 46.9826 36.3636C46.8097 36.3636 46.6368 36.2908 46.5676 36.1815C46.5158 36.0905 46.3602 36.0541 46.2218 36.1269C46.0835 36.1815 45.9625 36.1451 45.9625 36.0541C45.9625 35.8174 39.3574 32.8858 37.2306 32.1938C36.5735 31.9571 35.3286 31.5019 34.464 31.1377C33.6168 30.7735 32.441 30.3001 31.8704 30.0816C30.1759 29.4261 29.4151 29.0255 29.7263 28.9527C29.9857 28.8798 31.49 29.4443 35.3286 31.0649C39.4957 32.8311 40.9654 33.3774 40.2565 32.904C40.1182 32.8129 40.0663 32.6855 40.1354 32.6126C40.2046 32.5398 40.9827 32.7765 41.8645 33.1407C43.5763 33.8508 47.363 35.2347 48.0028 35.3986C48.2276 35.4532 48.3832 35.4168 48.3832 35.2711C48.3832 35.1436 48.5042 35.089 48.6426 35.1618C48.9538 35.2893 48.9884 35.0708 48.6944 34.7613C48.5388 34.5974 48.5561 34.5427 48.7982 34.5427C49.0575 34.5427 49.0748 34.4881 48.9019 34.2696C48.7117 34.0329 48.7636 33.9965 49.2304 33.9965C49.5244 33.9965 49.7665 33.9054 49.7665 33.8144C49.7665 33.7051 49.9221 33.6323 50.1123 33.6323C50.5791 33.6323 50.5618 33.341 50.095 33.2135C49.7492 33.1225 49.7492 33.086 49.9912 32.8311C50.3889 32.4123 50.6483 32.4487 53.1728 33.4502C54.435 33.9419 55.5935 34.3607 55.7491 34.3607C55.9047 34.3607 56.5272 34.5792 57.167 34.8523C57.7894 35.1072 58.5502 35.3804 58.8615 35.4532C59.3283 35.5624 59.3975 35.5442 59.3283 35.2529C59.2246 34.8523 59.3283 34.8341 59.8298 35.1072C60.0545 35.2347 60.2447 35.2347 60.3485 35.1254C60.4349 35.0344 60.2966 34.8523 59.9681 34.6884C59.4321 34.4153 59.4321 34.4153 59.8298 34.2696C60.0545 34.1968 60.3485 34.1422 60.4868 34.1604C60.6251 34.1786 60.5387 34.0511 60.2793 33.869C59.5185 33.3592 59.726 33.0314 60.5214 33.4684C60.7116 33.5777 61.6107 33.8508 62.5271 34.0875C63.4608 34.3242 64.4637 34.652 64.7922 34.8341C65.1035 34.998 65.6395 35.1983 65.9507 35.2711C66.4522 35.3986 66.5386 35.3621 66.5386 35.0708C66.5386 34.7795 66.6078 34.7613 66.9882 34.9069C67.6279 35.1618 67.8873 34.9069 67.3167 34.5792C66.9363 34.3789 66.8844 34.2878 67.0746 34.1604C67.213 34.0693 67.4723 33.9965 67.6625 33.9965C67.9565 33.9965 67.9392 33.9419 67.5242 33.6505C66.9709 33.2863 67.1611 32.9404 67.7317 33.2681C67.9219 33.3592 68.3369 33.4502 68.6481 33.4502H69.2187L68.7864 33.0678L68.3541 32.6855L68.9075 32.7947C69.7028 32.9404 69.8066 32.4487 69.0285 32.1756C68.3369 31.9207 68.2677 31.7204 68.8729 31.5565C69.4089 31.4108 70.2734 30.5732 70.2043 30.2455C70.1697 30.0998 70.2389 29.9906 70.3599 29.9906C70.4636 29.9906 70.3772 29.7903 70.1524 29.5353C69.893 29.2622 69.5472 29.0801 69.2187 29.0801C68.8729 29.0801 68.7691 29.0255 68.9248 28.9162C69.0977 28.807 69.0631 28.7342 68.7691 28.6613C68.5271 28.5885 68.3196 28.6431 68.2331 28.7706C68.1467 28.9345 68.0602 28.9345 67.8873 28.7524C67.7317 28.5885 67.7317 28.5339 67.9392 28.5339C68.0775 28.5157 67.991 28.4064 67.749 28.2607L67.3167 28.0058L67.749 27.9876H68.1812L67.6625 27.6234L67.1438 27.2592H67.6971C68.4406 27.2592 68.5616 26.9679 67.9738 26.6401C67.213 26.2031 67.9219 26.2942 69.1668 26.7676C70.8095 27.4231 71.2244 27.496 71.1034 27.1682C70.9824 26.8404 71.1034 26.8222 71.5703 27.0772C71.8296 27.2228 71.8988 27.2046 71.8988 27.0043C71.8988 26.8769 71.7777 26.6948 71.6221 26.6401C71.1898 26.4581 71.553 26.1303 72.089 26.2031C72.3483 26.2578 72.5385 26.2213 72.4867 26.1485C72.4521 26.0757 72.6423 25.9664 72.9189 25.8936C73.2475 25.8208 73.4031 25.6933 73.3512 25.5294C73.2993 25.402 73.4031 25.2381 73.6106 25.1652L73.9564 25.056L73.5933 24.6736L73.2475 24.3094L73.7835 23.7267C74.4578 22.9984 74.4578 22.5068 73.8008 22.1062C73.3858 21.833 73.2821 21.651 73.2821 21.1593C73.2821 20.3945 73.5068 20.2125 73.8526 20.7587C73.991 20.9772 74.3195 21.396 74.5962 21.7056C74.8728 21.9969 75.3915 22.616 75.7546 23.0712C76.135 23.5265 76.8958 24.4005 77.4837 25.0378C78.3656 26.0211 78.5903 26.1849 79.0572 26.1303C80.0082 26.0393 80.0255 25.8208 79.9909 19.0107C79.939 11.7636 80.1119 12.3281 77.7777 12.3281C75.8584 12.3281 75.7028 12.4737 75.7028 14.2946C75.7028 15.023 75.6682 15.6056 75.6336 15.6056C75.5817 15.6056 74.8901 14.8955 74.0774 14.0033L72.6077 12.4191L70.7403 12.3281C69.115 12.237 68.6827 12.1278 67.3167 11.5451C66.3138 11.1081 65.6222 10.9078 65.3628 10.9806C65.1208 11.0535 64.5502 10.926 63.8931 10.6347C63.3052 10.3797 62.0776 9.86989 61.1784 9.50571C60.2793 9.14154 59.069 8.6499 58.4984 8.41319C53.1555 6.20993 51.0979 5.48158 50.7866 5.70008C50.5618 5.82755 46.7751 4.48009 46.3947 4.13413C46.1354 3.91562 45.8241 3.84279 45.1498 3.89742C44.3544 3.95204 44.2507 3.91562 44.1988 3.56966C44.1642 3.26011 43.9049 3.07802 43.1095 2.80489C42.5389 2.6228 41.7435 2.29504 41.3285 2.11295C40.9308 1.93087 40.2046 1.76699 39.7205 1.76699C39.1844 1.76699 38.268 1.54848 37.3862 1.22073C36.5908 0.929386 35.4496 0.547001 34.8444 0.401333C34.2565 0.237453 33.6514 0.0735741 33.4957 0.0189476C33.3574 -0.0174675 33.1845 0.000740051 33.1153 0.0553665ZM35.5015 2.4043C35.8992 2.58638 35.9338 2.64101 35.6744 2.65922C35.4842 2.65922 35.1384 2.54996 34.8963 2.4043C34.343 2.07654 34.8099 2.05833 35.5015 2.4043ZM41.2075 4.68039C41.2593 4.77143 41.2248 4.86248 41.1383 4.86248C41.0346 4.86248 40.9481 4.77143 40.9481 4.68039C40.9481 4.57114 40.9827 4.4983 41.0173 4.4983C41.0692 4.4983 41.1556 4.57114 41.2075 4.68039ZM13.4556 17.3355V24.8921H15.5305H17.6227L17.5709 26.1121L17.519 27.3503H14.3202H11.1214L11.0695 18.5555L11.0349 9.77884H12.2453H13.4556V17.3355ZM66.8153 11.7454C66.6942 11.8729 66.0199 11.5815 66.0199 11.4176C66.0199 11.3266 66.2101 11.3448 66.4522 11.454C66.6942 11.5633 66.8498 11.6908 66.8153 11.7454ZM7.57673 13.1293C7.57673 13.3295 7.2482 13.4024 7.14445 13.2385C7.09258 13.1475 7.16174 13.0564 7.30007 13.0564C7.45569 13.0564 7.57673 13.0928 7.57673 13.1293ZM26.8388 13.4206C27.271 13.5845 27.2883 13.6573 27.2883 15.0412V16.4797L26.6486 16.1337C25.8878 15.7149 24.5737 15.6785 23.7437 16.0427C23.4152 16.1883 22.9656 16.6253 22.7062 17.0441C21.4094 19.0835 22.0319 21.5417 24.0376 22.4157C24.8849 22.7981 25.4901 22.7799 26.4065 22.3429C26.8215 22.1426 27.1846 21.9787 27.2192 21.9787C27.2537 21.9787 27.2883 22.6342 27.2883 23.4354V24.8739L26.5621 25.0924C23.9858 25.8208 21.0636 24.3276 19.836 21.6327C19.2826 20.431 19.2654 18.0638 19.8014 16.8256C20.908 14.3128 23.0521 12.929 25.5074 13.1657C25.9915 13.2021 26.5967 13.3113 26.8388 13.4206ZM49.68 13.3113L50.5446 13.5116L50.5964 15.023L50.6483 16.5343L49.9221 16.1337C48.8328 15.551 47.2074 15.6967 46.4639 16.425C45.5821 17.3173 45.219 18.2459 45.3054 19.4477C45.3919 20.8133 45.9971 21.7784 47.0691 22.3065C48.0374 22.7981 48.5907 22.7981 49.5763 22.3429C49.9912 22.1426 50.3889 21.9787 50.4754 21.9787C50.5618 21.9787 50.631 22.5978 50.631 23.3444C50.631 25.0378 50.4754 25.1652 48.3832 25.1652C47.242 25.1652 46.7233 25.0742 46.1008 24.7646C45.0806 24.273 43.8184 23.053 43.2305 21.9969C42.7982 21.2321 42.7637 20.9954 42.7637 19.2474C42.7637 17.5904 42.8155 17.2262 43.1613 16.5525C43.7665 15.3689 44.9077 14.1489 45.7896 13.7484C47.3112 13.0564 48.2449 12.9472 49.68 13.3113ZM7.59402 16.8985C9.98016 22.6524 9.99745 22.6889 9.99745 23.927V25.0742H9.16749H8.32023L7.90525 23.9817L7.49027 22.8891H5.96867H4.42979L3.98022 23.9817L3.51337 25.0742H2.26843C1.57679 25.0742 1.00619 25.0378 1.00619 24.9832C1.00619 24.8011 1.7497 22.9256 2.47592 21.305C2.90819 20.3581 3.25401 19.5205 3.25401 19.4659C3.25401 19.3749 4.25688 16.9713 5.51911 13.9851C5.74389 13.457 5.9168 13.2385 6.03784 13.366C6.14158 13.4752 6.83322 15.0594 7.59402 16.8985ZM31.4036 15.551L31.4554 17.7907H32.3718C32.8733 17.7907 33.5303 17.8453 33.8243 17.8999L34.3603 18.0092L34.4122 15.6785L34.464 13.3295H35.6744H36.8848V19.1564V24.9832H35.6744H34.464L34.4122 22.6524L34.3603 20.3399H32.9079H31.4381V22.7071V25.0924L30.1932 25.0378L28.931 24.9832L28.8791 19.211L28.8445 13.4388L29.2249 13.3842C29.4497 13.3478 30.0203 13.3295 30.4871 13.3295H31.3517L31.4036 15.551ZM41.2593 19.2292L41.2939 25.0924L40.049 25.0378L38.7868 24.9832L38.7349 19.5205C38.7176 16.5161 38.7349 13.8758 38.7868 13.6391C38.8732 13.2385 38.9424 13.2203 40.049 13.2931L41.2075 13.366L41.2593 19.2292ZM54.7808 15.1322L54.8673 16.9349L55.6454 15.8606C56.0776 15.2597 56.6309 14.4767 56.8557 14.1125C57.0978 13.7301 57.4263 13.4206 57.5992 13.4024C58.9133 13.3295 60.0545 13.3842 60.0545 13.5298C60.0545 13.6209 59.3629 14.6588 58.4984 15.8424C57.6511 17.0259 56.8384 18.1367 56.7347 18.3187C56.4926 18.6647 56.4407 18.5919 58.9306 22.4339C59.7087 23.6357 60.4003 24.7282 60.4349 24.8375C60.5041 25.0196 60.1583 25.0742 59.0344 25.0742H57.5474L56.1987 22.9256L54.8673 20.7951L54.7808 22.8891L54.6944 24.9832H53.484H52.2736L52.2218 19.3384C52.2045 16.243 52.2218 13.6027 52.2563 13.4934C52.2909 13.3842 52.8097 13.3113 53.5186 13.3113L54.6944 13.3295L54.7808 15.1322ZM68.3541 14.5131V15.6967L66.1928 15.7877L64.0314 15.8788V16.6071V17.3355L66.1582 17.3901L68.285 17.4447L68.2331 18.6647L68.1812 19.8847L66.0545 19.9393L63.9277 19.994L63.9796 21.1775L64.0314 22.3793L66.1928 22.3975L68.3541 22.4339L68.406 23.745L68.4579 25.0742H64.9824H61.5243V19.2838C61.5243 16.0973 61.5588 13.4388 61.5934 13.4024C61.628 13.366 63.1669 13.3295 65.017 13.3295L68.3541 13.3478V14.5131ZM74.2676 15.7149L76.4809 18.1913L76.5673 15.7513L76.6538 13.3295L77.7777 13.3478L78.9016 13.3842L78.9535 19.2292C78.9707 22.4339 78.9362 25.0742 78.867 25.0742C78.7805 25.0742 77.3281 23.4172 75.6163 21.4142L72.504 17.7361L72.4521 21.4142L72.4175 25.0924L71.2417 25.0378L70.0832 24.9832V19.2474V13.5116L70.6884 13.4024C71.9852 13.1657 71.9507 13.1293 74.2676 15.7149ZM7.74963 14.1489C7.74963 14.24 7.71505 14.331 7.68047 14.331C7.6286 14.331 7.54214 14.24 7.49027 14.1489C7.4384 14.0397 7.47298 13.9669 7.55943 13.9669C7.66318 13.9669 7.74963 14.0397 7.74963 14.1489ZM18.3835 19.1564V20.2489H16.8273H15.2712L15.2193 19.3566C15.1328 17.9728 15.1501 17.9546 16.8619 18.0092L18.3835 18.0638V19.1564ZM9.72079 18.2641C9.92828 18.337 9.99745 18.6101 9.99745 19.2292C9.98016 20.1396 9.8937 20.0668 9.37498 18.7922C9.1329 18.1549 9.20207 18.0456 9.72079 18.2641ZM21.3057 26.3488C22.2048 26.7312 23.0693 27.1318 23.2423 27.241C23.5535 27.4231 23.5535 27.4231 23.2596 27.4413C22.6717 27.4413 19.2481 26.1485 18.9022 25.7661L18.5564 25.402L19.127 25.5294C19.4383 25.6023 20.4238 25.9664 21.3057 26.3488ZM21.1501 25.6205C21.2884 25.8572 20.8907 25.8572 20.5449 25.6205C20.3374 25.4748 20.3547 25.4384 20.6659 25.4384C20.8734 25.4384 21.0982 25.5112 21.1501 25.6205ZM22.931 26.1667C23.0348 26.1667 23.1385 26.2578 23.1385 26.367C23.1385 26.6037 22.274 26.4216 22.0146 26.1303C21.8936 25.9846 21.98 25.9664 22.274 26.0575C22.516 26.1121 22.81 26.1667 22.931 26.1667ZM28.4987 28.461C28.7408 28.6067 28.7926 28.6977 28.6197 28.6431C28.4468 28.5885 28.1874 28.5339 28.0491 28.5339C27.9108 28.5339 27.8071 28.4428 27.8071 28.3518C27.8071 28.0968 27.98 28.1333 28.4987 28.461ZM38.0087 32.7219C38.2334 32.8858 38.2334 32.904 38.0087 32.904C37.8703 32.904 37.6283 32.8129 37.4899 32.7219C37.2652 32.558 37.2652 32.5398 37.4899 32.5398C37.6283 32.5398 37.8703 32.6308 38.0087 32.7219ZM39.5476 33.3774C39.755 33.5959 39.4092 33.5595 38.9597 33.341L38.4409 33.086L38.9597 33.1953C39.2363 33.2499 39.513 33.341 39.5476 33.3774ZM41.7954 34.2878C42.0201 34.5063 41.657 34.4699 41.2939 34.2514L40.8617 33.9783L41.2939 34.1057C41.536 34.1604 41.7608 34.2514 41.7954 34.2878Z" fill="#E53E3E"/>
<path d="M5.62305 19.5934C5.45014 20.0122 5.3291 20.3946 5.3291 20.4311C5.3291 20.4857 5.60576 20.5221 5.93428 20.5221C6.62592 20.5221 6.6605 20.3582 6.21094 19.4478L5.8997 18.8287L5.62305 19.5934Z" fill="#E53E3E"/>
</svg>
